<svg id="Layer_1" data-name="Layer 1" xmlns="http://www.w3.org/2000/svg" viewBox="0 0 1080 1080"><defs><style>.cls-1{fill:#1c3c1c;}.cls-2{fill:#86bc65;}</style></defs><title>Logo_Design</title><path class="cls-1" d="M686.21,532.94c19.52-12.41,31.71-32.54,31.71-58.77.61-47.58-39.44-73.4-86.81-73.19h-141v64.86H601.22c9.15,0,16.67,9.15,16.67,18.3s-7.52,18.5-16.67,18.5H490.14v69.94h131c9.15,0,16.67,9.15,16.67,18.3s-7.52,18.3-16.67,18.3h-131v65.07H651.23c47,0,87.23-25.63,86.62-73.41C737.85,566.48,717.11,542.9,686.21,532.94Z"/><path class="cls-2" d="M401.56,500.65c14.52-.21,29,.38,43.25,3.5,4.68,1,6.33,3.1,5.82,8.27-3,30.14-5.64,60.31-2.89,90.65,1,11,.89,11.12-10.29,13.58-21.55,4.74-43,4.57-64.24-1.69-3.72-1.09-5.49-2.74-5-7.13,3.55-31.34,1.16-62.59-2.11-93.77-.68-6.51,1.12-9.06,7.25-10.3C382.69,501.87,392.1,501.22,401.56,500.65Z"/><path class="cls-2" d="M379.54,401.62c1.7-3.81,4.82-5.49,8.78-6.16a125.83,125.83,0,0,1,37.42-.48c6.29.81,10.39,3.5,12.45,9.59,1.27,3.74,3.11,7.29,4.69,10.92,2.9,2.1,3.72,5.42,5.1,8.45,3.14,6.89,5,14.22,7.63,21.28,1.35,3.64.68,7.35.83,11,0,4.34-1,6.92-5.79,3.39-6.62-4.83-14.37-6.74-22.32-7.83-15.68-2.14-31.33-2.21-46.86,1.36-5.56,1.28-10.9,3.08-15.54,6.51-1.56,1.15-3.09,2.22-5.14,1.28a12.39,12.39,0,0,1-1.39-9.52C363.34,435.63,370,420.8,376,405.73A7.41,7.41,0,0,1,379.54,401.62Z"/><path class="cls-2" d="M406.59,686.16c-9,.26-19-1.83-29-4.62-3.67-1-5.81-2.93-6.24-6.81-.55-5-1.29-10-1.95-15-.5-3.84,1.1-4.19,4.32-3q34.68,13.35,69.38-.06c3.29-1.28,4.82-.72,4.21,3.08-.21,1.24-.36,2.49-.54,3.73-2.7,18.89,1,15.88-20,20.93C420.63,686,414.32,686.22,406.59,686.16Z"/><path class="cls-2" d="M464.18,479.86c3.35,1.64,7.23,2.5,9.1,6.31.66,1.34,1.51,2.82.69,4.16-.94,1.52-2.76,1.05-4,.5-6.48-2.82-7,.43-7.13,5.93-.47,31.09.39,62.25-3.61,93.19-1.1,8.49-2.61,16.93-4.07,26.33-2.09-3.2-1.72-5.78-1.82-8.14-1.73-45.18-3-90.35,4.35-135.25a147.42,147.42,0,0,1,4.12-16.44c2.93-.1,1.62,2.15,1.71,3.38C464,466.49,462.79,473.22,464.18,479.86Z"/><path class="cls-2" d="M361.87,616.12a316.24,316.24,0,0,1-7.2-60.54c-.5-19.55-.66-39.11-.77-58.66,0-5.26-.54-9-7.23-6-1.28.58-3.12.93-4.11-.41s0-2.91.71-4.11c.86-1.4,2-3.36,3.27-3.66,7.73-1.8,7-7.59,6.8-13.28a87.87,87.87,0,0,1,.46-12.51c1.89,3.46,3.7,6.82,4.36,10.79,7,41.71,7.5,83.69,5.57,125.79-.35,7.53-.05,15.09-.05,22.64Z"/><path class="cls-2" d="M461.51,598.45c2,11.2,1.1,22.44,0,33.6-1.25,12.33-3.77,24.48-6.31,36.6-.8,3.84-2.3,7.08-6.25,8.17C450.14,650.19,455,624.22,461.51,598.45Z"/><path class="cls-2" d="M354.86,595.86c6.53,27.44,11.56,53.6,12.73,80.51a6.45,6.45,0,0,1-5.51-5.35C356.58,646.79,352.45,622.41,354.86,595.86Z"/><path class="cls-2" d="M356.93,455.41c-.81-6.62-2.49-13.16-2.17-19.88.67-14.23,6.47-25.71,18.52-33.72,3.7.43,3.82.47,2.43,4.46-2.59,7.45-5.37,14.82-8.09,22.22a237.54,237.54,0,0,0-7.14,23.32C360.05,453.52,360.43,456.53,356.93,455.41Z"/><path class="cls-2" d="M445.17,414.34c-.63-4-3.22-7.61-3.28-12.54,10.53,5.07,15.77,13.51,18.45,23.72a51,51,0,0,1-.79,27.87c-.44,1.51-1.08,3.52-2,.14C453,440.61,448.09,427.79,445.17,414.34Z"/><path class="cls-2" d="M356.93,455.41a3.62,3.62,0,0,0,2.19-2.83c3.38-15.76,9.3-30.72,14.57-45.88.5-1.45,3.13-3.59-.41-4.89,2-2.62,4.12-1.64,6.26-.19-6.43,16.95-13.91,33.54-18.05,51.3-.62,2.65-1.26,5.29-.7,8A13.77,13.77,0,0,1,356.93,455.41Z"/><path class="cls-2" d="M445.17,414.34a189.8,189.8,0,0,1,12.4,39.19c-.37.91-.75,1.81-1.13,2.71-3.82-13.81-8.77-27.25-13.56-40.75Z"/><path class="cls-2" d="M464.18,479.86c-2.4-4.47-.59-9.26-1.07-13.88-.33-3.19,1-6.62-1.33-9.53.3-.73.53-2.05.91-2.09,2-.22,1.47,1.54,1.48,2.54C464.23,464.55,464.19,472.21,464.18,479.86Z"/></svg>