<svg id="Layer_1" data-name="Layer 1" xmlns="http://www.w3.org/2000/svg" viewBox="0 0 1080 1080"><defs><style>.cls-1{fill:#86bc65;}.cls-2{fill:#1c3c1c;}.cls-3{fill:#010101;}</style></defs><title>Logo_Design</title><path class="cls-1" d="M686.86,419.06l.76.43a.4.4,0,0,1,.2.56,2,2,0,0,0,1.8,2.82,1.7,1.7,0,0,0,1.61-2.23,4.34,4.34,0,0,0-.93-1.45,10.82,10.82,0,0,1-1.47-2,3.44,3.44,0,0,1,.45-4.07A3.39,3.39,0,0,1,693,412c.21.05.45.24.63.13s.25-.37.36-.57l.39-.7a.38.38,0,0,1,.6-.17c.34.18.67.36,1,.56a.37.37,0,0,1,.16.59c-.19.36-.37.72-.59,1.06s-.11.38.09.56a3.56,3.56,0,0,1,.8,4.33c-.18.35-.32.41-.66.22l-1.44-.8c-.3-.17-.34-.31-.21-.64a1.69,1.69,0,0,0-1.27-2.44,1.12,1.12,0,0,0-.7,0,1.8,1.8,0,0,0-1,2.35,6.1,6.1,0,0,0,1,1.4,9.68,9.68,0,0,1,1.36,1.88,3.55,3.55,0,0,1-.52,4.21,3.32,3.32,0,0,1-3.74,1c-.29-.08-.42,0-.54.23s-.36.68-.55,1-.33.32-.62.17l-1-.54a.39.39,0,0,1-.17-.6c.18-.34.37-.69.58-1s.1-.33-.1-.48a4.49,4.49,0,0,1-1.47-1.81,3.41,3.41,0,0,1,.19-3.12.35.35,0,0,1,.54-.16Z"/><path class="cls-2" d="M615.35,498.35a32.72,32.72,0,0,1-6.81-.74l.81-3.75a28.45,28.45,0,0,0,14.21-.56l1.08,3.68A32.71,32.71,0,0,1,615.35,498.35Z"/><path class="cls-2" d="M603.36,496.07a48.39,48.39,0,0,1-13.6-8.23l2.45-2.94a45,45,0,0,0,12.52,7.59Z"/><path class="cls-2" d="M629.68,495.08l-1.59-3.48a48.24,48.24,0,0,0,12.14-8.29l2.59,2.83A51.33,51.33,0,0,1,629.68,495.08Z"/><path class="cls-2" d="M585.85,484.33a98.54,98.54,0,0,1-10.26-11.8l3.07-2.3a95.1,95.1,0,0,0,9.86,11.34Z"/><path class="cls-2" d="M646.57,482.45l-2.79-2.63A87.45,87.45,0,0,0,653.07,468l3.2,2.11A89.5,89.5,0,0,1,646.57,482.45Z"/><path class="cls-2" d="M572.56,468.32l-.9-1.33a117.49,117.49,0,0,0-8.17-10.78l2.9-2.51a118.66,118.66,0,0,1,8.45,11.14c.29.44.59.87.88,1.3Z"/><path class="cls-2" d="M495.49,498.86a58.71,58.71,0,0,0,7.45,1.58l-.13.81a59.49,59.49,0,0,1-7.52-1.78Z"/><path class="cls-2" d="M375.15,530.26h35v48.1c.14,33.84-27.57,43.56-61.15,43.63s-61.28-9.79-61.15-43.63v-48.1h34.91v45.9c-.14,14.72,11.92,17.25,26.24,17.45,14.26-.2,26.38-2.73,26.18-17.45Z"/><path class="cls-3" d="M505.53,530.4c24.58-.34,42.83,20.31,42.63,44.76.2,24.31-18,45.1-42.63,44.76H425.86V530.4ZM499,558.77H460.76v32.78H499c9.06,0,14.19-7.4,14.19-16.39S508.06,558.77,499,558.77Z"/><path class="cls-2" d="M618.38,570.63H679.2V622H661.75L660,608.07C649.63,618.32,633.84,622,618.65,622c-33.71-.14-61.28-9.86-61.15-43.7v-6.53c-.13-33.9,27.44-43.63,61.15-43.7,31,0,56.62,8.46,60.55,36H642.1a16.39,16.39,0,0,0-9.53-6.06,55.69,55.69,0,0,0-13.92-1.6c-14.32.2-26.44,2.86-26.25,17.45v2.2c-.19,14.72,11.93,17.25,26.25,17.45,13.79,0,22.58-.8,27.84-7.59H618.38Z"/><path class="cls-2" d="M695.14,530.4H799.92v22.91H730v11.46h69.88v20.71H730v11.46h69.88v23H695.14Z"/><path class="cls-2" d="M506.42,528.77c24.58-.33,42.84,20.32,42.64,44.77.2,24.32-18.06,45.1-42.64,44.77H426.74V528.77Zm-6.53,28.38H461.65v32.78h38.24c9.06,0,14.19-7.39,14.19-16.39S509,557.15,499.89,557.15Z"/><path class="cls-2" d="M172.11,671.28v17.19h-9.9v-52.1h20.92c12.94,0,19.28,5.9,19.28,17.54,0,9.9-6.69,17.37-18.93,17.37Zm0-26.49v18.32h10.24c7.3,0,10.34-2.86,10.34-9.11s-2.7-9.21-10.42-9.21Z"/><path class="cls-2" d="M233.58,678.74h-1c-2.08,6.6-6.77,10.6-14,10.6s-12.42-3.48-12.42-11.47c0-7.29,4.43-12.58,14.77-12.58h12.15v-2.78c0-5.3-2.17-8.34-7.9-8.34-4.77,0-7.55,2.43-8.59,7.21l-8.86-2c1.56-7.73,7.38-12.68,17.8-12.68,11.81,0,16.84,5.56,16.84,15.72v26.05h-8.85Zm-.44-5.64v-1.65H222.55c-4.69,0-7.38,1.74-7.38,5.12,0,3,1.82,5.47,7.12,5.47C228.8,682,233.14,678.22,233.14,673.1Z"/><path class="cls-2" d="M251.89,688.47V647.66h8.86V659.9l.78.09c2.35-9.9,6.17-12.77,12.07-12.77h1.48v10.51h-2.26c-8.6,0-11.64,3-11.64,11.38v19.36Z"/><path class="cls-2" d="M291.05,664.42h3.74l12.85-16.76h10.68v1l-16.15,19.11,17.28,19.79v1H308.77l-14-17.11h-3.74v17.11h-9.38V632.72h9.38Z"/><path class="cls-2" d="M324.22,640.71v-7.55h10.16v7.55Zm.35,47.76V647.66h9.37v40.81Z"/><path class="cls-2" d="M353.56,688.47h-9.29V647.66h9.12v10.76h.78c2.26-7.55,7.47-11.8,14.33-11.8,8.51,0,12.59,5.73,12.59,14.58v27.27H371.8V663.63c0-4.94-2.17-8.59-7.82-8.59-6.25,0-10.42,4.17-10.42,10.33Z"/><path class="cls-2" d="M406.35,703.4c-15.45,0-20-3.3-20-8.5,0-3.56,3.82-6.17,9.38-7.39v-.34c-3.65-.7-5.56-2.61-5.56-5.47,0-2.17,1.74-4.08,4.6-5.47l3.13-1.74c-6.08-2-9.29-6.43-9.29-12.59,0-9.21,6.69-14.24,18-14.24h20.24v7.2h-4.69c-2.17,0-4.78-.17-8.25-.43l-.09.78c5.38,1,9.9,3.3,9.9,8.68,0,7.3-6.17,11.73-17.54,11.73a27.15,27.15,0,0,1-6.86-.78l-1,1.47a5.4,5.4,0,0,0-1,2.61c0,1.65,1.31,2.26,4,2.26,4.6,0,9.29-.09,13.72-.09,8.59,0,12.76,3.73,12.76,10.07C427.8,699.41,422.5,703.4,406.35,703.4Zm14-12c0-2.34-1.65-4-5.64-4H400.36c-4.43,0-6.69,2.25-6.69,4.51,0,3.3,2.61,4.69,13.2,4.69C417.82,696.63,420.33,694.9,420.33,691.42Zm-23.27-29.35c0,4.34,2.43,7.12,9.21,7.12s9.46-2.78,9.46-7.12-3.12-7.12-9.55-7.12S397.06,657.82,397.06,662.07Z"/><path class="cls-2" d="M264,573.63a22,22,0,0,0,10.39-19.25c.2-15.59-12.92-24-28.44-24H199.73v21.24h36.39c3,0,5.46,3,5.46,6s-2.47,6.06-5.46,6.06H199.73v22.92h42.91c3,0,5.47,3,5.47,6s-2.47,6-5.47,6H199.73v21.31H252.5c15.39,0,28.58-8.39,28.38-24C280.88,584.62,274.09,576.89,264,573.63Z"/><path class="cls-1" d="M170.71,563.05a61.76,61.76,0,0,1,14.16,1.15c1.54.33,2.08,1,1.91,2.7-1,9.88-1.85,19.76-.94,29.7.32,3.62.29,3.65-3.38,4.45a41.57,41.57,0,0,1-21-.55c-1.22-.36-1.8-.9-1.64-2.34,1.16-10.26.38-20.5-.69-30.72-.22-2.13.37-3,2.38-3.37A66.62,66.62,0,0,1,170.71,563.05Z"/><path class="cls-1" d="M163.49,530.61a3.49,3.49,0,0,1,2.88-2,41.29,41.29,0,0,1,12.26-.16,4.41,4.41,0,0,1,4.08,3.14c.41,1.23,1,2.39,1.53,3.58a6.09,6.09,0,0,1,1.67,2.77c1,2.26,1.65,4.66,2.5,7a11.58,11.58,0,0,1,.28,3.61c0,1.42-.32,2.27-1.9,1.12a15.6,15.6,0,0,0-7.31-2.57,42.21,42.21,0,0,0-15.36.45,13.16,13.16,0,0,0-5.09,2.13c-.51.38-1,.73-1.68.42a4.09,4.09,0,0,1-.46-3.12c1.29-5.18,3.46-10,5.42-15A2.4,2.4,0,0,1,163.49,530.61Z"/><path class="cls-1" d="M172.35,623.83a32.93,32.93,0,0,1-9.48-1.52,2.41,2.41,0,0,1-2.05-2.23c-.18-1.64-.42-3.27-.64-4.9-.16-1.26.36-1.37,1.42-1a30.49,30.49,0,0,0,22.73,0c1.08-.42,1.58-.23,1.38,1-.07.41-.12.82-.18,1.22-.89,6.19.32,5.2-6.56,6.86A27.75,27.75,0,0,1,172.35,623.83Z"/><path class="cls-1" d="M191.22,556.24c1.1.54,2.37.82,3,2.07.22.44.5.92.23,1.36s-.91.34-1.32.16c-2.13-.92-2.31.14-2.34,1.95-.15,10.18.13,20.39-1.18,30.53-.36,2.78-.85,5.54-1.33,8.62a4.3,4.3,0,0,1-.6-2.66c-.57-14.81-1-29.6,1.42-44.32a51.6,51.6,0,0,1,1.35-5.38c1,0,.54.7.56,1.11C191.15,551.86,190.77,554.06,191.22,556.24Z"/><path class="cls-1" d="M157.7,600.88a103.39,103.39,0,0,1-2.36-19.83c-.16-6.41-.21-12.82-.25-19.22,0-1.73-.18-3-2.37-2a1.08,1.08,0,0,1-1.35-.14c-.31-.43,0-1,.24-1.34s.64-1.1,1.07-1.2c2.53-.59,2.28-2.49,2.23-4.35a28.26,28.26,0,0,1,.15-4.1,11.26,11.26,0,0,1,1.43,3.54c2.29,13.66,2.45,27.41,1.82,41.21-.11,2.46,0,4.94,0,7.41Z"/><path class="cls-1" d="M190.35,595.09a40.2,40.2,0,0,1,0,11,116,116,0,0,1-2.07,12c-.26,1.26-.75,2.32-2.05,2.68A128.89,128.89,0,0,1,190.35,595.09Z"/><path class="cls-1" d="M155.41,594.24a140,140,0,0,1,4.17,26.38,2.11,2.11,0,0,1-1.81-1.75C156,610.93,154.62,602.94,155.41,594.24Z"/><path class="cls-1" d="M156.08,548.23a39.65,39.65,0,0,1-.71-6.51,13.25,13.25,0,0,1,6.07-11.05c1.21.14,1.25.15.8,1.46-.85,2.44-1.76,4.85-2.65,7.28a73.15,73.15,0,0,0-2.34,7.64C157.11,547.61,157.23,548.59,156.08,548.23Z"/><path class="cls-1" d="M185,534.77c-.2-1.32-1.05-2.49-1.07-4.1a11.08,11.08,0,0,1,6,7.77,16.68,16.68,0,0,1-.26,9.13c-.14.49-.35,1.15-.64,0A106.37,106.37,0,0,1,185,534.77Z"/><path class="cls-1" d="M156.08,548.23a1.18,1.18,0,0,0,.72-.93c1.11-5.16,3-10.06,4.77-15,.17-.47,1-1.17-.13-1.6.66-.86,1.35-.54,2.05-.06-2.11,5.55-4.56,11-5.91,16.8a6.2,6.2,0,0,0-.23,2.64A4.55,4.55,0,0,1,156.08,548.23Z"/><path class="cls-1" d="M185,534.77a62.46,62.46,0,0,1,4.07,12.84l-.37.89c-1.26-4.52-2.88-8.93-4.45-13.35Z"/><path class="cls-1" d="M191.22,556.24c-.78-1.47-.19-3-.35-4.55-.11-1,.34-2.17-.44-3.12.1-.24.18-.67.3-.69.66-.07.48.51.49.84C191.24,551.22,191.22,553.73,191.22,556.24Z"/><path class="cls-1" d="M867.48,574.6a58,58,0,0,1,13.14,1.06c1.42.31,1.92,1,1.77,2.52-.91,9.15-1.72,18.31-.88,27.53.3,3.35.27,3.38-3.13,4.12a38.63,38.63,0,0,1-19.51-.51c-1.13-.33-1.66-.83-1.51-2.17,1.07-9.51.35-19-.64-28.47-.21-2,.33-2.76,2.2-3.13A61.59,61.59,0,0,1,867.48,574.6Z"/><path class="cls-1" d="M860.79,544.52a3.27,3.27,0,0,1,2.67-1.87,38.34,38.34,0,0,1,11.37-.14,4.07,4.07,0,0,1,3.78,2.91c.38,1.13.94,2.21,1.42,3.32a5.59,5.59,0,0,1,1.55,2.56c1,2.1,1.52,4.32,2.32,6.47a10.46,10.46,0,0,1,.25,3.34c0,1.32-.29,2.11-1.76,1a14.43,14.43,0,0,0-6.78-2.38,39.36,39.36,0,0,0-14.23.41,12.32,12.32,0,0,0-4.72,2c-.47.35-.94.67-1.56.39a3.78,3.78,0,0,1-.42-2.89c1.2-4.81,3.21-9.31,5-13.89A2.27,2.27,0,0,1,860.79,544.52Z"/><path class="cls-1" d="M869,631a30.75,30.75,0,0,1-8.79-1.41,2.24,2.24,0,0,1-1.9-2.07c-.17-1.52-.39-3-.59-4.54-.16-1.17.33-1.27,1.31-.9a28.27,28.27,0,0,0,21.07,0c1-.38,1.46-.22,1.28.94-.06.37-.11.75-.16,1.13-.82,5.74.29,4.82-6.09,6.36A25.34,25.34,0,0,1,869,631Z"/><path class="cls-1" d="M855.43,609.67a96.33,96.33,0,0,1-2.19-18.38c-.15-5.94-.2-11.88-.23-17.82,0-1.6-.17-2.74-2.2-1.83-.39.18-.95.29-1.25-.12s0-.89.22-1.25.59-1,1-1.11c2.35-.55,2.12-2.31,2.07-4a25.67,25.67,0,0,1,.14-3.8,10.61,10.61,0,0,1,1.32,3.28c2.13,12.67,2.28,25.42,1.69,38.21-.1,2.28,0,4.58,0,6.87Z"/><path class="cls-1" d="M853.3,603.52A130,130,0,0,1,857.17,628a2,2,0,0,1-1.68-1.62C853.82,619,852.57,611.58,853.3,603.52Z"/><path class="cls-1" d="M853.93,560.86a35.11,35.11,0,0,1-.66-6,12.28,12.28,0,0,1,5.62-10.24c1.13.13,1.16.15.74,1.36-.79,2.26-1.63,4.5-2.45,6.74a70.66,70.66,0,0,0-2.17,7.09C854.88,560.29,855,561.2,853.93,560.86Z"/><path class="cls-1" d="M853.93,560.86a1.09,1.09,0,0,0,.66-.86A118.66,118.66,0,0,1,859,546.07c.15-.44,1-1.09-.13-1.49.61-.79,1.26-.5,1.9-.06-1.95,5.15-4.22,10.19-5.48,15.58a5.8,5.8,0,0,0-.21,2.45A4.23,4.23,0,0,1,853.93,560.86Z"/><path class="cls-2" d="M196.15,450v21.71H171V450h-9.9v52.1H171V480.57h25.18V502.1h9.9V450Z"/><path class="cls-2" d="M252.75,478.92c0-11.2-6-18.67-18.31-18.67-12.77,0-20.58,8.16-20.58,22,0,13.63,8.07,20.93,20.58,20.93,10.93,0,16.06-5,18-12.42l-8-2.26c-1.14,3.91-3.39,7-9.9,7-6.95,0-10.68-3.73-11.37-11.11h29.43C252.75,482.3,252.75,480.48,252.75,478.92Zm-29.52-.78c.87-7.3,4.61-10.68,11-10.68,6.51,0,9.63,3.65,10,10.68Z"/><path class="cls-2" d="M277.24,460.34c-10.42,0-16.24,5-17.8,12.67l8.86,2c1-4.77,3.82-7.2,8.59-7.2,5.73,0,7.91,3,7.91,8.33v2.78H272.64c-10.33,0-14.76,5.3-14.76,12.59,0,8,5.12,11.46,12.41,11.46s11.9-4,14-10.59h1v9.72h8.85v-26C294.08,465.89,289.05,460.34,277.24,460.34Zm7.56,26.4c0,5.12-4.34,8.94-10.85,8.94-5.31,0-7.13-2.52-7.13-5.47,0-3.39,2.69-5.12,7.38-5.12h10.6Z"/><path class="cls-2" d="M326.74,493.42a19.7,19.7,0,0,1-5.91,1c-4.08,0-5.57-2.08-5.57-6.07V468.84h12V461.3h-12v-11h-9.37v11h-5.73v7.54h5.73v20.84c0,7.65,3.82,13.55,12.76,13.55a26.39,26.39,0,0,0,9.21-1.47Z"/><path class="cls-2" d="M358.86,460.25c-7.13,0-12.08,4.35-14.42,11.8h-.69V446.36h-9.3V502.1h9.3V479c0-6.17,4.17-10.32,10.5-10.32,5.47,0,7.73,3.64,7.73,8.59V502.1h9.3V474.84C371.28,466,367.27,460.25,358.86,460.25Z"/><path class="cls-2" d="M402.27,460.86c-5.91,0-9.72,2.87-12.08,12.76l-.78-.08V461.3h-8.85v40.8h9.29V482.74c0-8.33,3-11.38,11.64-11.38h2.25v-10.5Z"/><path class="cls-2" d="M428.49,460.25c-12.68,0-20.76,7.9-20.76,21.36s7.65,21.62,20.76,21.62c12.93,0,20.58-8.24,20.58-21.62S441,460.25,428.49,460.25Zm-.09,34.91c-7.82,0-11.29-5.21-11.29-13.64s3.73-13.37,11.29-13.37,11.37,5,11.37,13.37S436.13,495.16,428.4,495.16Z"/><path class="cls-2" d="M510.61,461.3H506.9l-3.66,15.79c-1.56,6.35-3,11.9-4.25,18h-1.56c-1.14-6.17-2.44-12.16-3.91-17.8l-4-16H478.94l-3.92,16c-1.47,5.73-2.77,11.72-3.9,17.8h-1.57c-1.22-6.08-2.69-11.72-4.34-18l-4.08-15.79h-9.64l12.16,40.8h12l4.08-17.79c1.12-5.22,2.25-10.77,3.21-16.16h1.38c.87,5.47,2,10.85,3.22,16.16l4.25,17.79H504l9.59-32.17s1.87-7.84,1.91-8.63Z"/><path class="cls-1" d="M726.23,460.63c-4-8.31-7.65-16.77-11.91-24.93-1.76-3.36-2.3-6,.45-8.84,1.56-1.62,2-3.64.5-5.48s-3.61-2.57-5.86-1c-.78.55-1.66,1.22-2.2,0-1.45-3.3-4.9-6.14-1.37-10.42,4-4.82,7.35-10.16,11-15.25,3.15-4.4,4-9.41,4-14.63-.24-3.35-2.11-4-5-3.19a23.08,23.08,0,0,0-13.22,9.43c-3.32,4.89-7,9.52-10,14.61-2.38,4.07-5.57,2.22-8.67,2.28-4,.06-1.77-2.47-2-4.08a4.17,4.17,0,0,0-3.2-3.45c-2.09-.61-3.91.11-4.66,1.92-2,4.76-5.7,4.39-9.65,3.76-1.27-.2-2.56-.3-3.84-.44-7.5-.76-15-1.35-22.53-2.33-3.89-.5-6.35,1.35-7.23,4.49-1,3.71,3,2.9,4.73,3.58,12.73,4.9,25.55,9.54,38.37,14.16,2.49.89,3.89,1.44,1.77,4.37-5.62,7.77-11.37,15.48-15,24.46-1,2.48-2.82,2.38-5,2.12-4.38-.52-8.78-.91-13.2-1.24-2.43-.18-3.91,1.58-4.45,3.49-.7,2.49,1.93,2.11,3.24,2.65,3.41,1.4,6.91,2.57,10.37,3.84,2.09.78,4.19,1.3,3.18,4.55-.75,2.41,1,3.16,2.81,1.88,2.7-1.92,3.89-.25,5.35,1.55,2.18,2.74,4.37,5.48,6.77,8,1.1,1.15,1.67,4.09,3.87,2.75A4.43,4.43,0,0,0,675.3,473c-2-3.74-3.61-7.66-5.44-11.47-1.09-2.28-.86-4,1.18-5.83,6.52-5.82,11.51-13,16.3-20.16,2.42-3.61,3.75-3.94,6.6-.36,8.51,10.66,17.36,21,26.09,31.52,3.28,4,4.42,3.74,6.71-.89C727.71,463.85,727.05,462.33,726.23,460.63Zm-35.37-30.39a11.58,11.58,0,1,1,11.59-11.58A11.59,11.59,0,0,1,690.86,430.24Z"/><path class="cls-1" d="M886.88,566.78c1,.5,2.23.77,2.8,1.94.21.42.47.87.22,1.29s-.85.32-1.24.15c-2-.87-2.18.13-2.2,1.83-.15,9.59.12,19.19-1.12,28.74-.34,2.61-.8,5.21-1.25,8.11a4.06,4.06,0,0,1-.56-2.51c-.54-13.93-.94-27.85,1.34-41.7a43.69,43.69,0,0,1,1.27-5.07c.9,0,.5.66.53,1C886.81,562.66,886.45,564.73,886.88,566.78Z"/><path class="cls-1" d="M886.06,603.35a37.84,37.84,0,0,1,0,10.36A110.79,110.79,0,0,1,884.1,625a2.86,2.86,0,0,1-1.93,2.52A121.85,121.85,0,0,1,886.06,603.35Z"/><path class="cls-1" d="M879.44,547c-.23-1.43-1.14-2.7-1.16-4.45,3.73,1.8,5.59,4.8,6.54,8.42a18.08,18.08,0,0,1-.28,9.89c-.16.53-.38,1.25-.7,0A115.14,115.14,0,0,1,879.44,547Z"/><path class="cls-1" d="M879.44,547a67.16,67.16,0,0,1,4.4,13.91l-.4,1c-1.36-4.9-3.11-9.67-4.82-14.46Z"/><path class="cls-2" d="M482.84,454.79s6.66-12.18,11.75-15.38l2.49,4A85.91,85.91,0,0,0,482.84,454.79Z"/><path class="cls-2" d="M561.58,454.1a76.32,76.32,0,0,0-14-11.6l2.5-4A81.21,81.21,0,0,1,565,450.83Z"/><path class="cls-2" d="M502.34,440.4l-2.12-4.19a53.13,53.13,0,0,1,18.68-5.66l.47,4.67A48.33,48.33,0,0,0,502.34,440.4Z"/><path class="cls-2" d="M542.37,439.57a43.68,43.68,0,0,0-17.1-4.52l.22-4.68a48.12,48.12,0,0,1,18.93,5Z"/><path class="cls-2" d="M812.53,530.4v28.37h35.8c-.24-4.11,0-16.31,10.68-19.34,0,0,32.82-8.57,31.79,19.34h39.64V530.4Z"/></svg>